<svg fill="#000000" xmlns="http://www.w3.org/2000/svg"  viewBox="0 0 24 24" width="24px" height="24px"><path d="M 21.566406 7.914063 C 21.390625 7.21875 20.738281 7 20 7 C 19.21875 7 18 5.957031 17.390625 5.433594 C 17.085938 5.175781 16.433594 5 16 5 L 8 5 C 7.566406 5 6.914063 5.175781 6.609375 5.433594 C 6 6 4.78125 7 4 7 C 3.261719 7 2.652344 7.21875 2.433594 7.914063 C 2.042969 9.390625 2 12.78125 2 14 C 2 15 2.738281 15.738281 3 16 C 3.523438 16.523438 4.390625 16.914063 7 17 C 7.824219 17.695313 8.957031 18 12 18 C 15.042969 18 16.175781 17.695313 17 17 C 19.566406 16.914063 20.433594 16.566406 21 16 C 21.261719 15.738281 22 15 22 14 C 22 12.824219 21.957031 9.390625 21.566406 7.914063 Z M 7 11 L 6 11 L 6 12 L 5 12 L 5 11 L 4 11 L 4 10 L 5 10 L 5 9 L 6 9 L 6 10 L 7 10 Z M 16 8.371094 L 16 14 L 8 14 L 8 8 L 16 8 Z M 18 13 C 17.449219 13 17 12.550781 17 12 C 17 11.449219 17.449219 11 18 11 C 18.550781 11 19 11.449219 19 12 C 19 12.550781 18.550781 13 18 13 Z M 20 11 C 19.449219 11 19 10.550781 19 10 C 19 9.449219 19.449219 9 20 9 C 20.550781 9 21 9.449219 21 10 C 21 10.550781 20.550781 11 20 11 Z"/></svg>